<?xml version="1.0" encoding="utf-8"?>
<!-- Generator: Adobe Illustrator 17.0.0, SVG Export Plug-In . SVG Version: 6.00 Build 0)  -->
<!DOCTYPE svg PUBLIC "-//W3C//DTD SVG 1.1//EN" "http://www.w3.org/Graphics/SVG/1.1/DTD/svg11.dtd">
<svg version="1.1" id="Layer_1" xmlns:sketch="http://www.bohemiancoding.com/sketch/ns"
	 xmlns="http://www.w3.org/2000/svg" xmlns:xlink="http://www.w3.org/1999/xlink" x="0px" y="0px" width="64px" height="61px"
	 viewBox="0 0 64 61" enable-background="new 0 0 64 61" xml:space="preserve">
<title>Cashier-machine</title>
<desc>Created with Sketch.</desc>
<g id="Page-1" sketch:type="MSPage">
	<g id="Cashier-machine" transform="translate(1.000000, 1.000000)" sketch:type="MSLayerGroup">
		<g id="Group" sketch:type="MSShapeGroup">
			<path id="Shape_17_" fill="none" stroke="#6B6C6E" stroke-width="2" stroke-linejoin="round" d="M57.001,45.972
				c0,0,0-7.329,0-7.95L50.804,12.95c-0.3-0.932-0.97-1.939-2.17-1.939h-3.647V3.999h4.996V0L35.006,0.104v3.896h4.977l0,7.012
				H12.449c-1.1,0-1.638,0.799-2.038,1.835L5.012,37.918c0,3.212,0,0.595,0,8.054H57H1.113c-1.1,0-1.1,0.932-1.1,2.072l0,7.694
				c0,1.14-0.102,2.313,1.098,2.313h59.664c1.1,0,1.215-1.173,1.215-2.313l0-7.59c0.1-1.14-0.015-2.176-1.215-2.176H57.001z"/>
			<path id="Shape_2_" fill="none" stroke="#6B6C6E" stroke-width="2" stroke-linejoin="round" d="M32.989,22.978l2,0.027"/>
			<path id="Shape_3_" fill="none" stroke="#6B6C6E" stroke-width="2" stroke-linejoin="round" d="M36.051,22.991h1.911"/>
			<path id="Shape_4_" fill="none" stroke="#6B6C6E" stroke-width="2" stroke-linejoin="round" d="M39.103,23.031l1.8,0.027"/>
			<path id="Shape_5_" fill="none" stroke="#6B6C6E" stroke-width="2" stroke-linejoin="round" d="M44.058,23.031h2.957"/>
			<path id="Shape_6_" fill="none" stroke="#6B6C6E" stroke-width="2" stroke-linejoin="round" d="M33.082,26.03h1.857"/>
			<path id="Shape_7_" fill="none" stroke="#6B6C6E" stroke-width="2" stroke-linejoin="round" d="M36.005,26H38"/>
			<path id="Shape_8_" fill="none" stroke="#6B6C6E" stroke-width="2" stroke-linejoin="round" d="M39.02,26H41"/>
			<path id="Shape_9_" fill="none" stroke="#6B6C6E" stroke-width="2" stroke-linejoin="round" d="M44,26l3,0.055"/>
			<path id="Shape_10_" fill="none" stroke="#6B6C6E" stroke-width="2" stroke-linejoin="round" d="M44,29h3"/>
			<path id="Shape_11_" fill="none" stroke="#6B6C6E" stroke-width="2" stroke-linejoin="round" d="M39.02,29H41"/>
			<path id="Shape_12_" fill="none" stroke="#6B6C6E" stroke-width="2" stroke-linejoin="round" d="M36.07,29h1.943"/>
			<path id="Shape_13_" fill="none" stroke="#6B6C6E" stroke-width="2" stroke-linejoin="round" d="M33,29h2"/>
			<path id="Shape_14_" fill="none" stroke="#6B6C6E" stroke-width="2" stroke-linejoin="round" d="M33,19h9"/>
			
				<rect id="Rectangle-path" x="14" y="18" fill="none" stroke="#6B6C6E" stroke-width="2" stroke-linejoin="round" width="16" height="6"/>
			<path id="Shape_15_" fill="none" stroke="#6B6C6E" stroke-width="2" stroke-linejoin="round" d="M5,38h18"/>
			<path id="Shape_16_" fill="none" stroke="#6B6C6E" stroke-width="2" stroke-linejoin="round" d="M39,38h18.8"/>
			<path id="Shape_18_" fill="none" stroke="#6B6C6E" stroke-width="2" stroke-linejoin="round" d="M17,27h10"/>
		</g>
		<path id="Shape" sketch:type="MSShapeGroup" fill="none" stroke="#6B6C6E" stroke-width="2" stroke-linejoin="round" d="M26,52v-2
			h11v2"/>
	</g>
</g>
</svg>
