<svg version="1.1" xmlns="http://www.w3.org/2000/svg" xmlns:xlink="http://www.w3.org/1999/xlink" width="25" height="25" viewBox="0 0 25 25"><path id="Checkout" d="M-0.000,25.000 C-0.000,23.143 -0.000,21.285 -0.000,19.427 C0.044,19.335 0.096,19.246 0.132,19.150 C0.901,17.107 1.669,15.063 2.432,13.017 C2.479,12.891 2.497,12.747 2.497,12.612 C2.501,10.554 2.500,8.497 2.500,6.440 C2.500,5.974 2.639,5.834 3.103,5.834 C3.936,5.832 4.769,5.832 5.603,5.831 C5.677,5.831 5.751,5.821 5.833,5.815 C5.833,5.165 5.833,4.541 5.834,3.916 C5.834,3.552 5.912,3.434 6.238,3.304 C7.525,2.789 8.813,2.275 10.101,1.762 C10.584,1.569 10.832,1.738 10.833,2.260 C10.834,3.346 10.833,4.430 10.833,5.515 C10.833,5.616 10.833,5.716 10.833,5.819 C13.351,5.819 15.829,5.819 18.317,5.819 C18.317,5.265 18.317,4.724 18.317,4.166 C17.641,4.166 16.983,4.169 16.324,4.166 C15.526,4.161 15.010,3.643 14.999,2.842 C14.996,2.660 15.000,2.477 15.000,2.295 C15.000,2.061 15.014,1.825 14.996,1.592 C14.937,0.814 15.234,0.266 15.990,-0.000 C17.830,-0.000 19.670,-0.000 21.510,-0.000 C21.539,0.017 21.565,0.040 21.595,0.051 C22.190,0.268 22.493,0.681 22.500,1.305 C22.506,1.842 22.508,2.380 22.498,2.917 C22.485,3.622 21.961,4.145 21.259,4.165 C21.033,4.172 20.808,4.166 20.582,4.167 C20.117,4.167 19.652,4.167 19.187,4.167 C19.187,4.738 19.187,5.278 19.187,5.833 C20.100,5.833 20.993,5.833 21.885,5.834 C22.367,5.834 22.500,5.963 22.500,6.452 C22.501,8.465 22.497,10.477 22.506,12.489 C22.507,12.716 22.550,12.955 22.628,13.169 C23.190,14.696 23.764,16.220 24.339,17.742 C24.552,18.307 24.779,18.866 25.000,19.427 C25.000,21.285 25.000,23.143 25.000,25.000 C16.667,25.000 8.333,25.000 -0.000,25.000 zM9.982,2.707 C9.074,3.070 8.190,3.423 7.306,3.778 C7.098,3.862 6.813,3.898 6.707,4.054 C6.601,4.210 6.671,4.488 6.669,4.713 C6.666,5.082 6.668,5.451 6.668,5.826 C7.792,5.826 8.876,5.826 9.982,5.826 C9.982,4.777 9.982,3.753 9.982,2.707 zM21.168,3.332 C21.506,3.331 21.663,3.175 21.666,2.840 C21.670,2.337 21.669,1.834 21.663,1.331 C21.660,0.990 21.505,0.834 21.171,0.834 C19.567,0.832 17.963,0.832 16.359,0.834 C15.987,0.834 15.836,0.984 15.834,1.353 C15.832,1.830 15.832,2.307 15.836,2.784 C15.839,3.202 15.979,3.332 16.407,3.332 C17.179,3.331 17.951,3.332 18.723,3.332 C18.723,3.332 18.723,3.332 18.723,3.333 C19.537,3.333 20.353,3.335 21.168,3.332 zM21.646,6.680 C15.535,6.680 9.446,6.680 3.345,6.680 C3.345,8.617 3.345,10.541 3.345,12.482 C9.462,12.482 15.557,12.482 21.646,12.482 C21.646,10.534 21.646,8.604 21.646,6.680 zM23.919,19.006 C23.247,17.213 22.570,15.422 21.910,13.625 C21.822,13.388 21.706,13.327 21.465,13.328 C18.835,13.337 16.205,13.334 13.575,13.334 C10.207,13.334 6.839,13.335 3.471,13.330 C3.282,13.329 3.186,13.375 3.116,13.567 C2.587,15.007 2.043,16.441 1.504,17.877 C1.347,18.296 1.190,18.716 1.029,19.148 C8.687,19.148 16.317,19.148 23.967,19.148 C23.946,19.086 23.933,19.046 23.919,19.006 zM24.147,20.022 C16.366,20.022 8.605,20.022 0.841,20.022 C0.841,21.406 0.841,22.767 0.841,24.150 C8.629,24.150 16.390,24.150 24.147,24.150 C24.147,22.758 24.147,21.384 24.147,20.022 zM8.907,20.834 C10.156,20.832 11.406,20.832 12.655,20.832 C13.531,20.832 14.407,20.832 15.283,20.834 C15.678,20.835 15.828,20.987 15.833,21.388 C15.836,21.604 15.838,21.822 15.832,22.038 C15.825,22.285 15.661,22.475 15.451,22.491 C15.226,22.509 15.033,22.337 15.005,22.078 C14.992,21.951 15.003,21.822 15.003,21.680 C13.036,21.680 11.113,21.680 9.167,21.680 C9.167,21.820 9.174,21.949 9.166,22.076 C9.151,22.297 8.970,22.494 8.774,22.491 C8.549,22.487 8.376,22.370 8.356,22.143 C8.329,21.825 8.325,21.502 8.352,21.184 C8.373,20.943 8.576,20.834 8.907,20.834 zM6.712,17.740 C6.370,17.740 6.039,17.740 5.690,17.740 C5.690,17.405 5.690,17.074 5.690,16.724 C6.025,16.724 6.356,16.724 6.712,16.724 C6.712,17.072 6.712,17.397 6.712,17.740 zM8.278,16.167 C7.935,16.167 7.609,16.167 7.262,16.167 C7.262,15.826 7.262,15.494 7.262,15.141 C7.595,15.141 7.929,15.141 8.278,15.141 C8.278,15.486 8.278,15.819 8.278,16.167 zM9.859,17.748 C9.512,17.748 9.185,17.748 8.833,17.748 C8.833,17.391 8.833,17.065 8.833,16.722 C9.181,16.722 9.514,16.722 9.859,16.722 C9.859,17.071 9.859,17.404 9.859,17.748 zM11.442,16.168 C11.093,16.168 10.767,16.168 10.421,16.168 C10.421,15.823 10.421,15.490 10.421,15.140 C10.761,15.140 11.094,15.140 11.442,15.140 C11.442,15.484 11.442,15.810 11.442,16.168 zM13.013,17.742 C12.670,17.742 12.339,17.742 11.991,17.742 C11.991,17.402 11.991,17.071 11.991,16.722 C12.331,16.722 12.662,16.722 13.013,16.722 C13.013,17.076 13.013,17.401 13.013,17.742 zM14.585,16.159 C14.247,16.159 13.917,16.159 13.565,16.159 C13.565,15.823 13.565,15.491 13.565,15.140 C13.904,15.140 14.237,15.140 14.585,15.140 C14.585,15.483 14.585,15.809 14.585,16.159 zM16.164,17.744 C15.822,17.744 15.496,17.744 15.145,17.744 C15.145,17.411 15.145,17.079 15.145,16.718 C15.492,16.718 15.819,16.718 16.164,16.718 C16.164,17.064 16.164,17.397 16.164,17.744 zM17.747,16.168 C17.394,16.168 17.068,16.168 16.723,16.168 C16.723,15.821 16.723,15.488 16.723,15.140 C17.068,15.140 17.401,15.140 17.747,15.140 C17.747,15.486 17.747,15.813 17.747,16.168 zM19.313,17.742 C18.972,17.742 18.641,17.742 18.299,17.742 C18.299,17.395 18.299,17.056 18.299,16.718 C18.646,16.718 18.971,16.718 19.313,16.718 C19.313,17.063 19.313,17.395 19.313,17.742 zM5.546,7.501 C7.419,7.499 9.292,7.499 11.165,7.500 C11.479,7.500 11.662,7.660 11.664,7.973 C11.673,9.057 11.672,10.141 11.664,11.225 C11.662,11.522 11.462,11.668 11.109,11.668 C10.172,11.669 9.235,11.668 8.299,11.668 C8.299,11.668 8.299,11.667 8.299,11.667 C7.388,11.667 6.477,11.668 5.567,11.666 C5.152,11.666 5.001,11.518 5.001,11.103 C4.998,10.089 4.999,9.074 5.000,8.059 C5.001,7.660 5.153,7.502 5.546,7.501 zM5.847,10.819 C7.512,10.819 9.162,10.819 10.823,10.819 C10.823,9.992 10.823,9.180 10.823,8.352 C9.148,8.352 7.498,8.352 5.847,8.352 C5.847,9.182 5.847,9.994 5.847,10.819 zM15.112,9.168 C16.429,9.165 17.746,9.164 19.063,9.165 C19.365,9.166 19.569,9.331 19.577,9.566 C19.584,9.812 19.372,9.999 19.067,10.001 C18.400,10.004 17.733,10.002 17.066,10.002 C17.066,10.001 17.066,10.001 17.066,10.000 C16.416,10.000 15.766,10.001 15.116,10.000 C14.799,10.000 14.592,9.835 14.594,9.587 C14.595,9.330 14.787,9.168 15.112,9.168 z" fill="#757575" /></svg>